<mxfile host="65bd71144e">
    <diagram id="bDKj2VBEH4AD1xoqecHZ" name="Page-1">
        <mxGraphModel dx="2665" dy="895" grid="1" gridSize="10" guides="1" tooltips="1" connect="1" arrows="1" fold="1" page="1" pageScale="1" pageWidth="827" pageHeight="1169" background="#DAD2D8" math="0" shadow="0">
            <root>
                <mxCell id="0"/>
                <mxCell id="1" parent="0"/>
                <mxCell id="4" value="" style="edgeStyle=orthogonalEdgeStyle;rounded=0;orthogonalLoop=1;jettySize=auto;html=1;labelBackgroundColor=#DAD2D8;strokeColor=#A8201A;fontColor=#143642;" parent="1" source="2" target="3" edge="1">
                    <mxGeometry relative="1" as="geometry"/>
                </mxCell>
                <mxCell id="2" value="开始" style="html=1;dashed=0;whitespace=wrap;shape=mxgraph.dfd.start;fillColor=#FAE5C7;strokeColor=#0F8B8D;fontColor=#143642;" parent="1" vertex="1">
                    <mxGeometry x="240" y="100" width="80" height="30" as="geometry"/>
                </mxCell>
                <mxCell id="6" value="" style="edgeStyle=orthogonalEdgeStyle;rounded=0;orthogonalLoop=1;jettySize=auto;html=1;labelBackgroundColor=#DAD2D8;strokeColor=#A8201A;fontColor=#143642;" parent="1" source="3" target="5" edge="1">
                    <mxGeometry relative="1" as="geometry"/>
                </mxCell>
                <mxCell id="3" value="用户上传或者修改头像" style="html=1;dashed=0;whitespace=wrap;fillColor=#FAE5C7;strokeColor=#0F8B8D;fontColor=#143642;whiteSpace=wrap;" parent="1" vertex="1">
                    <mxGeometry x="180" y="150" width="200" height="50" as="geometry"/>
                </mxCell>
                <mxCell id="8" value="" style="edgeStyle=orthogonalEdgeStyle;rounded=0;orthogonalLoop=1;jettySize=auto;html=1;labelBackgroundColor=#DAD2D8;strokeColor=#A8201A;fontColor=#143642;entryX=0.5;entryY=0;entryDx=0;entryDy=0;" parent="1" source="5" target="11" edge="1">
                    <mxGeometry relative="1" as="geometry">
                        <mxPoint x="280" y="330" as="targetPoint"/>
                    </mxGeometry>
                </mxCell>
                <mxCell id="5" value="发给face_beauty 服务得到颜值，保存到数据库中" style="html=1;dashed=0;whitespace=wrap;fillColor=#FAE5C7;strokeColor=#0F8B8D;fontColor=#143642;whiteSpace=wrap;" parent="1" vertex="1">
                    <mxGeometry x="180" y="220" width="200" height="50" as="geometry"/>
                </mxCell>
                <mxCell id="9" value="结束" style="html=1;dashed=0;whitespace=wrap;shape=mxgraph.dfd.start;fillColor=#FAE5C7;strokeColor=#0F8B8D;fontColor=#143642;" parent="1" vertex="1">
                    <mxGeometry x="240" y="500" width="80" height="30" as="geometry"/>
                </mxCell>
                <mxCell id="27" style="edgeStyle=orthogonalEdgeStyle;rounded=0;orthogonalLoop=1;jettySize=auto;html=1;exitX=0.5;exitY=1;exitDx=0;exitDy=0;entryX=0.5;entryY=0;entryDx=0;entryDy=0;fontColor=#F01179;labelBackgroundColor=#2A101A;labelBorderColor=none;fillColor=#d80073;strokeColor=#A50040;" parent="1" source="11" target="12" edge="1">
                    <mxGeometry relative="1" as="geometry"/>
                </mxCell>
                <mxCell id="11" value="发送给face_feature 服务取得人脸特征数据存入redis 中" style="html=1;dashed=0;whitespace=wrap;fillColor=#FAE5C7;strokeColor=#0F8B8D;fontColor=#143642;whiteSpace=wrap;" parent="1" vertex="1">
                    <mxGeometry x="180" y="290" width="200" height="40" as="geometry"/>
                </mxCell>
                <mxCell id="16" value="" style="edgeStyle=orthogonalEdgeStyle;rounded=0;orthogonalLoop=1;jettySize=auto;html=1;labelBackgroundColor=#DAD2D8;strokeColor=#A8201A;fontColor=#143642;" parent="1" source="12" target="14" edge="1">
                    <mxGeometry relative="1" as="geometry"/>
                </mxCell>
                <mxCell id="12" value="用当前用户的人脸特征数据和redis 中所有的用户进行欧式距离计算，选出最高的10个作为朋友推荐列表" style="html=1;dashed=0;whitespace=wrap;fillColor=#FAE5C7;strokeColor=#0F8B8D;fontColor=#143642;whiteSpace=wrap;" parent="1" vertex="1">
                    <mxGeometry x="180" y="350" width="200" height="50" as="geometry"/>
                </mxCell>
                <mxCell id="17" value="" style="edgeStyle=orthogonalEdgeStyle;rounded=0;orthogonalLoop=1;jettySize=auto;html=1;labelBackgroundColor=#DAD2D8;strokeColor=#A8201A;fontColor=#143642;" parent="1" source="14" target="9" edge="1">
                    <mxGeometry relative="1" as="geometry"/>
                </mxCell>
                <mxCell id="14" value="保存推荐列表到数据库中" style="html=1;dashed=0;whitespace=wrap;fillColor=#FAE5C7;strokeColor=#0F8B8D;fontColor=#143642;whiteSpace=wrap;" parent="1" vertex="1">
                    <mxGeometry x="180" y="420" width="200" height="50" as="geometry"/>
                </mxCell>
            </root>
        </mxGraphModel>
    </diagram>
</mxfile>